<?xml version="1.0" encoding="UTF-8"?>
<svg width="35px" height="35px" viewBox="0 0 35 35" version="1.1" xmlns="http://www.w3.org/2000/svg" xmlns:xlink="http://www.w3.org/1999/xlink">
    <!-- Generator: Sketch 53 (72520) - https://sketchapp.com -->
    <title>Artboard</title>
    <desc>Created with Sketch.</desc>
    <g id="Artboard" stroke="none" stroke-width="1" fill="none" fill-rule="evenodd">
        <circle id="Oval" fill="#3C3C3C" cx="17.5" cy="17.5" r="17.5"></circle>
        <path d="M15.88,18.4 L11.19,18.4 C10.5327812,18.4 10,17.8358788 10,17.14 C10,16.4441212 10.5327812,15.88 11.19,15.88 L15.88,15.88 L15.88,11.19 C15.88,10.5327811 16.4441212,10 17.14,10 C17.8358788,10 18.4,10.5327811 18.4,11.19 L18.4,15.88 L23.09,15.88 C23.7472189,15.88 24.28,16.4441212 24.28,17.14 C24.28,17.8358788 23.7472189,18.4 23.09,18.4 L18.4,18.4 L18.4,23.09 C18.4,23.7472189 17.8358788,24.28 17.14,24.28 C16.4441212,24.28 15.88,23.7472189 15.88,23.09 L15.88,18.4 Z" id="path-1" fill="#FFFFFF" fill-rule="nonzero" transform="translate(17.140000, 17.140000) rotate(45.000000) translate(-17.140000, -17.140000) "></path>
    </g>
</svg>