<?xml version="1.0" encoding="utf-8"?>
<!-- Generator: Adobe Illustrator 19.2.1, SVG Export Plug-In . SVG Version: 6.00 Build 0)  -->
<svg version="1.1" id="Layer_1" xmlns="http://www.w3.org/2000/svg" xmlns:xlink="http://www.w3.org/1999/xlink" x="0px" y="0px"
	 width="225.6px" height="225.6px" viewBox="0 0 225.6 225.6" style="enable-background:new 0 0 225.6 225.6;" xml:space="preserve"
	>
<style type="text/css">
	.st0{fill:#00A99D;}
</style>
<path class="st0" d="M112.8,4.8c-59.6,0-108,48.4-108,108s48.4,108,108,108s108-48.4,108-108S172.4,4.8,112.8,4.8z M67.8,139.8
	c0,5-4,9-9,9s-9-4-9-9v-54c0-5,4-9,9-9s9,4,9,9V139.8z M94.8,121.8c0,5-4,9-9,9s-9-4-9-9v-18c0-5,4-9,9-9s9,4,9,9V121.8z
	 M121.8,157.8c0,5-4,9-9,9s-9-4-9-9v-90c0-5,4-9,9-9s9,4,9,9V157.8z M148.8,139.8c0,5-4,9-9,9s-9-4-9-9v-54c0-5,4-9,9-9s9,4,9,9
	V139.8z M175.8,121.8c0,5-4,9-9,9s-9-4-9-9v-18c0-5,4-9,9-9s9,4,9,9V121.8z"/>
</svg>
